<?xml version="1.0" standalone="no"?>
<!DOCTYPE svg PUBLIC "-//W3C//DTD SVG 20010904//EN"
 "http://www.w3.org/TR/2001/REC-SVG-20010904/DTD/svg10.dtd">
<svg version="1.0" xmlns="http://www.w3.org/2000/svg"
 width="512.000000pt" height="512.000000pt" viewBox="0 0 512.000000 512.000000"
 preserveAspectRatio="xMidYMid meet">

<g transform="translate(0.000000,512.000000) scale(0.100000,-0.100000)"
fill="#155C92" stroke="none">
<path d="M1069 4830 c-387 -81 -700 -396 -780 -784 -18 -87 -19 -159 -19
-1486 0 -1327 1 -1399 19 -1486 78 -377 360 -671 746 -777 l80 -22 1445 0
1445 0 85 23 c334 91 597 336 707 657 52 154 53 167 53 1152 0 889 -1 915 -20
952 -58 115 -215 113 -279 -4 -14 -27 -17 -102 -21 -685 l-5 -654 -441 505
c-242 277 -465 526 -494 552 -59 53 -166 108 -250 128 -70 17 -209 17 -280 0
-80 -19 -194 -77 -251 -129 -28 -25 -187 -202 -355 -393 -168 -192 -307 -349
-308 -349 -2 0 -49 56 -105 125 -128 155 -199 221 -282 262 -98 49 -186 66
-299 60 -119 -7 -198 -34 -296 -99 -66 -44 -104 -85 -322 -348 l-247 -298 -3
1096 c-3 1231 -7 1162 71 1322 33 69 58 102 132 175 73 74 106 98 175 132 157
76 108 73 1121 73 563 0 917 4 938 10 47 13 99 66 112 112 18 68 -19 151 -81
183 -25 13 -157 15 -967 14 -866 0 -945 -2 -1024 -19z m2246 -2258 c55 -28 74
-49 650 -707 280 -319 519 -592 533 -607 l24 -26 -16 -84 c-11 -53 -33 -117
-63 -177 -37 -78 -60 -109 -127 -175 -90 -90 -158 -134 -268 -174 l-73 -27
-1415 0 c-1531 0 -1430 -3 -1554 50 -119 51 -247 164 -319 281 -39 64 -81 182
-91 254 l-6 45 246 300 c496 604 470 574 532 603 80 36 159 36 237 -2 51 -26
75 -50 236 -245 102 -123 195 -226 217 -239 47 -29 116 -26 164 8 18 13 200
214 403 448 204 233 384 435 401 448 17 13 48 31 70 39 55 21 167 14 219 -13z"/>
<path d="M3969 4827 c-19 -12 -44 -42 -56 -67 -22 -42 -23 -55 -23 -297 l0
-253 -264 0 c-256 0 -264 -1 -297 -23 -49 -32 -83 -105 -74 -158 9 -53 64
-115 113 -129 21 -5 146 -10 280 -10 l242 0 0 -242 c0 -134 5 -259 10 -280 14
-49 76 -104 129 -113 53 -9 126 25 158 74 22 33 23 41 23 297 l0 264 253 0
c242 0 255 1 297 23 25 12 55 37 67 56 43 65 23 168 -41 214 -30 21 -42 22
-301 27 l-270 5 -5 270 c-5 259 -6 271 -27 301 -46 64 -149 84 -214 41z"/>
<path d="M1352 4196 c-207 -51 -389 -237 -431 -444 -40 -193 15 -384 150 -527
107 -112 229 -170 385 -182 346 -26 647 275 621 621 -4 45 -13 103 -21 129
-61 195 -225 352 -421 402 -71 18 -209 18 -283 1z m254 -330 c86 -40 154 -143
154 -233 0 -139 -105 -256 -243 -270 -199 -20 -348 191 -263 372 26 57 99 127
148 142 61 20 148 15 204 -11z"/>
</g>
</svg>
